{"title":"Blue Jasmine (2013) BRRip x264 ukr sub","uid":9597528,"size":693370166,"categoryP":"video","categoryS":"movies","magnet":"?xt=urn:btih:2b709ab696252e9c4ecaa0e22ab917bf16f0078b&amp;dn=Blue+Jasmine+%282013%29+BRRip+x264+ukr+sub&amp;tr=udp%3A%2F%2Ftracker.openbittorrent.com%3A80&amp;tr=udp%3A%2F%2Fopen.demonii.com%3A1337&amp;tr=udp%3A%2F%2Ftracker.coppersurfer.tk%3A6969&amp;tr=udp%3A%2F%2Fexodus.desync.com%3A6969","seeders":2,"leechers":0,"uploader":"orysia","files":-1,"time":1392050752,"description":"A New York socialite, deeply troubled and in denial, arrives in San Francisco to impose upon her sister. She looks a million, but isn't bringing money, peace, or love... \n\nDirector &amp; Writer: Woody Allen\nStars: Cate Blanchett, Alec Baldwin, Peter Sarsgaard\n\nFormat                                   : MPEG-4\nFormat profile                           : Base Media\nCodec ID                                 : isom\nFile size                                : 661 MiB\nDuration                                 : 1h 38mn\nOverall bit rate mode                    : Variable\nOverall bit rate                         : 939 Kbps\nMovie name                               : Blue Jasmine*2013 /antusyrzhuk\nGenre                                    : Comedy\nRecorded date                            : 2013\nEncoded date                             : UTC 2014-01-30 09:21:56\nTagged date                              : UTC 2014-01-30 09:21:56\nWriting application                      : Yamb 2.0.0.8 [http://yamb.unite-video.com]\nComment                                  : http://cinemasterpiece(dot)wordpress(dot)com/\n\nVideo\nID                                       : 1\nFormat                                   : AVC\nFormat/Info                              : Advanced Video Codec\nFormat profile                           : &lt;a class=&quot;__cf_email__&quot; href=&quot;/cdn-cgi/l/email-protection&quot; data-cfemail=&quot;a0edc1c9cee0ec938e91&quot;&gt;[email&amp;#160;protected]&lt;/a&gt;&lt;script cf-hash='f9e31' type=&quot;text/javascript&quot;&gt;\n/* &lt;![CDATA[ */!function(){try{var t=&quot;currentScript&quot;in document?document.currentScript:function(){for(var t=document.getElementsByTagName(&quot;script&quot;),e=t.length;e--;)if(t[e].getAttribute(&quot;cf-hash&quot;))return t[e]}();if(t&amp;&amp;t.previousSibling){var e,r,n,i,c=t.previousSibling,a=c.getAttribute(&quot;data-cfemail&quot;);if(a){for(e=&quot;&quot;,r=parseInt(a.substr(0,2),16),n=2;a.length-n;n+=2)i=parseInt(a.substr(n,2),16)^r,e+=String.fromCharCode(i);e=document.createTextNode(e),c.parentNode.replaceChild(e,c)}}}catch(u){}}();/* ]]&gt; */&lt;/script&gt;\nFormat settings, CABAC                   : Yes\nFormat settings, ReFrames                : 5 frames\nCodec ID                                 : avc1\nCodec ID/Info                            : Advanced Video Coding\nDuration                                 : 1h 38mn\nBit rate                                 : 839 Kbps\nMaximum bit rate                         : 2 774 Kbps\nWidth                                    : 800 pixels\nHeight                                   : 410 pixels\nDisplay aspect ratio                     : 1.951\nFrame rate mode                          : Constant\nFrame rate                               : 23.976 fps\nColor space                              : YUV\nChroma subsampling                       : 4:2:0\nBit depth                                : 8 bits\nScan type                                : Progressive\nBits/(Pixel*Frame)                       : 0.107\nStream size                              : 591 MiB (89%)\nWriting library                          : x264 core 138 r2358 9e941d1\nEncoding settings                        : cabac=1 / ref=5 / deblock=1:-1:-1 / analyse=0x1:0x111 / me=umh / subme=8 / psy=1 / psy_rd=1.00:0.15 / mixed_ref=1 / me_range=16 / chroma_me=1 / trellis=1 / 8x8dct=0 / cqm=0 / deadzone=21,11 / fast_pskip=1 / chroma_qp_offset=-3 / threads=3 / lookahead_threads=1 / sliced_threads=0 / nr=0 / decimate=1 / interlaced=0 / bluray_compat=0 / constrained_intra=0 / bframes=3 / b_pyramid=2 / b_adapt=2 / b_bias=0 / direct=3 / weightb=1 / open_gop=0 / weightp=2 / keyint=240 / keyint_min=23 / scenecut=30 / intra_refresh=0 / rc_lookahead=50 / rc=2pass / mbtree=1 / bitrate=839 / ratetol=1.0 / qcomp=0.60 / qpmin=0 / qpmax=69 / qpstep=4 / cplxblur=20.0 / qblur=0.5 / vbv_maxrate=14000 / vbv_bufsize=14000 / nal_hrd=none / ip_ratio=1.40 / aq=1:1.00\nEncoded date                             : UTC 2014-01-30 09:21:56\nTagged date                              : UTC 2014-01-30 09:22:27\n\nAudio\nID                                       : 2\nFormat                                   : AAC\nFormat/Info                              : Advanced Audio Codec\nFormat profile                           : LC\nCodec ID                                 : 40\nDuration                                 : 1h 38mn\nBit rate mode                            : Variable\nBit rate                                 : 96.0 Kbps\nMaximum bit rate                         : 120 Kbps\nChannel(s)                               : 2 channels\nChannel positions                        : Front: L R\nSampling rate                            : 48.0 KHz\nCompression mode                         : Lossy\nStream size                              : 67.5 MiB (10%)\nLanguage                                 : English\nEncoded date                             : UTC 2014-01-30 09:22:25\nTagged date                              : UTC 2014-01-30 09:22:27\n\nUkrainian subtitles are HARDCODED\n\nScreenshots: &lt;a href=&quot;\nhttp://imageshack.com/a/img838/281/06jf.png&quot; rel=&quot;nofollow&quot; target=&quot;_NEW&quot;&gt;\nhttp://imageshack.com/a/img838/281/06jf.png&lt;/a&gt; &lt;a href=&quot;\nhttp://imageshack.com/a/img199/364/fkog.png&quot; rel=&quot;nofollow&quot; target=&quot;_NEW&quot;&gt;\nhttp://imageshack.com/a/img199/364/fkog.png&lt;/a&gt; &lt;a href=&quot;\nhttp://imageshack.com/a/img855/316/l4hy.png&quot; rel=&quot;nofollow&quot; target=&quot;_NEW&quot;&gt;\nhttp://imageshack.com/a/img855/316/l4hy.png&lt;/a&gt; &lt;a href=&quot;\nhttp://imageshack.com/a/img545/340/qkkz.png&quot; rel=&quot;nofollow&quot; target=&quot;_NEW&quot;&gt;\nhttp://imageshack.com/a/img545/340/qkkz.png&lt;/a&gt;\n\n","torrent":{"xt":"urn:btih:2b709ab696252e9c4ecaa0e22ab917bf16f0078b","amp;dn":"Blue+Jasmine+%282013%29+BRRip+x264+ukr+sub","amp;tr":["udp%3A%2F%2Ftracker.openbittorrent.com%3A80","udp%3A%2F%2Fopen.demonii.com%3A1337","udp%3A%2F%2Ftracker.coppersurfer.tk%3A6969","udp%3A%2F%2Fexodus.desync.com%3A6969"],"infoHash":"2b709ab696252e9c4ecaa0e22ab917bf16f0078b","infoHashBuffer":{"type":"Buffer","data":[43,112,154,182,150,37,46,156,78,202,160,226,42,185,23,191,22,240,7,139]},"announce":[],"urlList":[]}}